# xmcd
#
# Track frame offsets:
#	150
#	11240
#	23664
#	35676
#	48972
#	66278
#	79726
#	99375
#	120296
#	136889
#	149906
#	161623
#	172718
#	187005
#	201854
#	216472
#	234045
#	248765
#	261371
#	272361
#	290435
#	301777
#	314434
#
# Disc length: 4357 seconds
#
# Revision: 1
# Processed by: cddbd v1.5.2PL0 Copyright (c) Steve Scherf et al.
# Submitted via: audiograbber 1.83.01
#
DISCID=43110317
DTITLE=Johnnz Cash - Come Along And Ride This Train CD2
DYEAR=1991
DGENRE=Country
TTITLE0=Hiawatha's Vision
TTITLE1=The Road To Kaintuck
TTITLE2=Hammer and Nails (& The Statler Brothers(
TTITLE3=The Shifting Whispering Sands (Part. 1)
TTITLE4=The Ballad of Boot Hill
TTITLE5=I Ride an Old Paint
TTITLE6=Hardin Wouldn-t Run
TTITLE7=Mr Garfield
TTITLE8=The Streets of Laredo
TTITLE9=Johnny Reb
TTITLE10=A Letter from Home
TTITLE11=Bury Me Not On The Lone Prairie
TTITLE12=Mean As Hell
TTITLE13=Sam Hall
TTITLE14=25 Minutes to Go
TTITLE15=The Blizzard
TTITLE16=Sweet Betsy from Pike
TTITLE17=Green Grow the Lilacs
TTITLE18=Rodeo Hand
TTITLE19=Stampede
TTITLE20=The Shifting Whispering Sands (Part. 2)
TTITLE21=Remember the Alamo
TTITLE22=Reflections
EXTD=
EXTT0=
EXTT1=
EXTT2=
EXTT3=
EXTT4=
EXTT5=
EXTT6=
EXTT7=
EXTT8=
EXTT9=
EXTT10=
EXTT11=
EXTT12=
EXTT13=
EXTT14=
EXTT15=
EXTT16=
EXTT17=
EXTT18=
EXTT19=
EXTT20=
EXTT21=
EXTT22=
PLAYORDER=
